<svg width="100" height="100" viewBox="0 0 100 100" fill="none" xmlns="http://www.w3.org/2000/svg">
<circle cx="50" cy="50" r="50" fill="#FF1616"/>
<path d="M35.0398 39.8238L25.2277 47.9997L35.0398 56.1756C35.3653 56.4423 35.6347 56.7708 35.8325 57.1421C36.0303 57.5134 36.1527 57.9202 36.1926 58.3391C36.2324 58.7579 36.189 59.1805 36.0647 59.5825C35.9404 59.9844 35.7378 60.3578 35.4686 60.6811C35.1993 61.0044 34.8687 61.2711 34.4958 61.466C34.1229 61.6609 33.7151 61.78 33.296 61.8165C32.8768 61.853 32.4546 61.8062 32.0537 61.6787C31.6527 61.5512 31.2809 61.3456 30.9598 61.0738L18.2098 50.4488C17.8507 50.1496 17.5618 49.7752 17.3636 49.352C17.1653 48.9287 17.0625 48.4671 17.0625 47.9997C17.0625 47.5323 17.1653 47.0707 17.3636 46.6475C17.5618 46.2242 17.8507 45.8498 18.2098 45.5506L30.9598 34.9256C31.6103 34.3926 32.445 34.1382 33.2822 34.2178C34.1194 34.2975 34.8912 34.7048 35.4294 35.351C35.9676 35.9971 36.2287 36.8298 36.1557 37.6676C36.0828 38.5054 35.6817 39.2804 35.0398 39.8238ZM81.7898 45.5506L69.0398 34.9256C68.7187 34.6538 68.347 34.4482 67.946 34.3207C67.5451 34.1933 67.1228 34.1464 66.7037 34.1829C66.2845 34.2194 65.8768 34.3386 65.5039 34.5334C65.131 34.7283 64.8004 34.9951 64.5311 35.3183C64.2618 35.6416 64.0592 36.015 63.935 36.417C63.8107 36.8189 63.7672 37.2415 63.8071 37.6603C63.847 38.0792 63.9693 38.486 64.1672 38.8573C64.365 39.2286 64.6344 39.5571 64.9598 39.8238L74.772 47.9997L64.9598 56.1756C64.6344 56.4423 64.365 56.7708 64.1672 57.1421C63.9693 57.5134 63.847 57.9202 63.8071 58.3391C63.7672 58.7579 63.8107 59.1805 63.935 59.5825C64.0592 59.9844 64.2618 60.3578 64.5311 60.6811C64.8004 61.0044 65.131 61.2711 65.5039 61.466C65.8768 61.6609 66.2845 61.78 66.7037 61.8165C67.1228 61.853 67.5451 61.8062 67.946 61.6787C68.347 61.5512 68.7187 61.3456 69.0398 61.0738L81.7898 50.4488C82.1489 50.1496 82.4378 49.7752 82.6361 49.352C82.8344 48.9287 82.9372 48.4671 82.9372 47.9997C82.9372 47.5323 82.8344 47.0707 82.6361 46.6475C82.4378 46.2242 82.1489 45.8498 81.7898 45.5506ZM59.5889 21.6285C59.1954 21.4854 58.7776 21.4212 58.3594 21.4396C57.9411 21.458 57.5305 21.5587 57.1512 21.7358C56.7718 21.9129 56.431 22.163 56.1483 22.4718C55.8656 22.7806 55.6465 23.1421 55.5036 23.5356L38.5036 70.2856C38.2154 71.08 38.2544 71.9562 38.6121 72.7218C38.9697 73.4873 39.6167 74.0796 40.4108 74.3683C40.7594 74.497 41.1282 74.5627 41.4998 74.5622C42.1543 74.5623 42.7929 74.361 43.3289 73.9856C43.865 73.6102 44.2725 73.0788 44.4961 72.4638L61.4961 25.7138C61.6392 25.3203 61.7034 24.9025 61.6849 24.4842C61.6665 24.066 61.5659 23.6554 61.3888 23.276C61.2117 22.8967 60.9616 22.5559 60.6527 22.2732C60.3439 21.9905 59.9824 21.7714 59.5889 21.6285Z" fill="white"/>
</svg>
