<svg width="112" height="90" viewBox="0 0 112 90" fill="none" xmlns="http://www.w3.org/2000/svg">
<path d="M100.8 0H11.2C5.04 0 0.0559999 5.0625 0.0559999 11.25L0 78.75C0 84.9375 5.04 90 11.2 90H100.8C106.96 90 112 84.9375 112 78.75V11.25C112 5.0625 106.96 0 100.8 0ZM98.56 23.9062L58.968 48.7688C57.176 49.8938 54.824 49.8938 53.032 48.7688L13.44 23.9062C12.8785 23.5896 12.3867 23.1618 11.9946 22.6488C11.6024 22.1358 11.3179 21.5481 11.1584 20.9215C10.9989 20.2948 10.9676 19.6421 11.0665 19.003C11.1653 18.3638 11.3923 17.7515 11.7336 17.2029C12.0749 16.6544 12.5234 16.1812 13.0521 15.8118C13.5807 15.4425 14.1785 15.1848 14.8092 15.0542C15.4399 14.9236 16.0904 14.9229 16.7213 15.0522C17.3523 15.1815 17.9506 15.438 18.48 15.8062L56 39.375L93.52 15.8062C94.0494 15.438 94.6477 15.1815 95.2787 15.0522C95.9096 14.9229 96.5601 14.9236 97.1908 15.0542C97.8215 15.1848 98.4193 15.4425 98.9479 15.8118C99.4766 16.1812 99.9251 16.6544 100.266 17.2029C100.608 17.7515 100.835 18.3638 100.934 19.003C101.032 19.6421 101.001 20.2948 100.842 20.9215C100.682 21.5481 100.398 22.1358 100.005 22.6488C99.6133 23.1618 99.1215 23.5896 98.56 23.9062Z" fill="white"/>
</svg>
