<svg width="97" height="100" viewBox="0 0 97 100" fill="none" xmlns="http://www.w3.org/2000/svg">
<circle cx="47" cy="50" r="50" fill="#FF1616"/>
<path d="M47 17C41.5441 17 36.3117 19.1598 32.4538 23.0043C28.5959 26.8488 26.4286 32.0631 26.4286 37.5C26.4286 42.9369 28.5959 48.1512 32.4538 51.9957C36.3117 55.8402 41.5441 58 47 58C52.4559 58 57.6883 55.8402 61.5462 51.9957C65.4041 48.1512 67.5714 42.9369 67.5714 37.5C67.5714 32.0631 65.4041 26.8488 61.5462 23.0043C57.6883 19.1598 52.4559 17 47 17ZM21.332 63.125C19.9776 63.1196 18.6354 63.3807 17.3824 63.8933C16.1295 64.406 14.9904 65.16 14.0305 66.1123C13.0706 67.0646 12.3088 68.1963 11.7887 69.4426C11.2687 70.6889 11.0007 72.0253 11 73.375C11 82.0414 15.284 88.5758 21.98 92.8346C28.5731 97.0218 37.46 99 47 99C56.54 99 65.4269 97.0218 72.02 92.8346C78.716 88.5809 83 82.0363 83 73.375C83 70.6565 81.9163 68.0494 79.9874 66.1272C78.0584 64.2049 75.4422 63.125 72.7143 63.125H21.332Z" fill="white"/>
<path d="M65.4567 52.7088L69.7905 62.4314C70.2992 63.5725 71.3775 64.3559 72.6199 64.4871L83.2059 65.6044C83.6362 65.6498 83.8096 66.1833 83.4881 66.473L75.5806 73.5992C74.6526 74.4356 74.2407 75.7032 74.4999 76.9254L76.7085 87.3385C76.7983 87.7618 76.3445 88.0915 75.9696 87.8753L66.7487 82.557C65.6665 81.9328 64.3336 81.9328 63.2513 82.557L54.0304 87.8753C53.6555 88.0915 53.2017 87.7618 53.2915 87.3385L55.5001 76.9254C55.7593 75.7032 55.3474 74.4356 54.4194 73.5992L46.5119 66.473C46.1904 66.1833 46.3638 65.6498 46.7941 65.6044L57.3801 64.4871C58.6225 64.3559 59.7008 63.5725 60.2095 62.4314L64.5433 52.7088C64.7195 52.3136 65.2805 52.3136 65.4567 52.7088Z" fill="white" stroke="black" stroke-width="3"/>
</svg>
