<svg width="100" height="100" viewBox="0 0 100 100" fill="none" xmlns="http://www.w3.org/2000/svg">
<circle cx="50" cy="50" r="50" fill="#FF1616"/>
<path d="M50 17C44.5441 17 39.3117 19.1598 35.4538 23.0043C31.5959 26.8488 29.4286 32.0631 29.4286 37.5C29.4286 42.9369 31.5959 48.1512 35.4538 51.9957C39.3117 55.8402 44.5441 58 50 58C55.4559 58 60.6883 55.8402 64.5462 51.9957C68.4041 48.1512 70.5714 42.9369 70.5714 37.5C70.5714 32.0631 68.4041 26.8488 64.5462 23.0043C60.6883 19.1598 55.4559 17 50 17ZM24.332 63.125C22.9776 63.1196 21.6354 63.3807 20.3824 63.8933C19.1295 64.406 17.9904 65.16 17.0305 66.1123C16.0706 67.0646 15.3088 68.1963 14.7887 69.4426C14.2687 70.6889 14.0007 72.0253 14 73.375C14 82.0414 18.284 88.5758 24.98 92.8346C31.5731 97.0218 40.46 99 50 99C59.54 99 68.4269 97.0218 75.02 92.8346C81.716 88.5809 86 82.0363 86 73.375C86 70.6565 84.9163 68.0494 82.9874 66.1272C81.0584 64.2049 78.4422 63.125 75.7143 63.125H24.332Z" fill="white"/>
<circle cx="66" cy="75" r="20" fill="black"/>
<path d="M68.24 67.4518C67.3828 67.488 66.6428 67.2199 66.0201 66.6476C65.3975 66.0754 65.0681 65.3606 65.0319 64.5034C64.9958 63.6461 65.2638 62.9062 65.8361 62.2835C66.4073 61.6349 67.1215 61.2925 67.9788 61.2563C68.836 61.2202 69.5765 61.5012 70.2002 62.0995C70.8489 62.6707 71.1913 63.3849 71.2274 64.2421C71.2636 65.0994 70.9825 65.8399 70.3843 66.4636C69.812 67.0863 69.0972 67.4157 68.24 67.4518ZM66.5104 89.3842C65.2635 89.4367 64.234 89.0898 63.4218 88.3434C62.6356 87.5958 62.2097 86.4427 62.144 84.8841C62.1166 84.2347 62.1849 83.3861 62.3489 82.3382L64.4711 69.7186L70.0822 69.482L67.8353 82.8486C67.7478 83.2426 67.7134 83.6604 67.732 84.102C67.7539 84.6216 67.8867 84.9933 68.1303 85.2172C68.3988 85.4141 68.8189 85.5005 69.3903 85.4764C69.8579 85.4567 70.2703 85.3612 70.6274 85.19C70.5782 86.4932 70.1528 87.5131 69.3511 88.2495C68.5743 88.9588 67.6274 89.3371 66.5104 89.3842Z" fill="white"/>
</svg>
