<svg width="87" height="124" viewBox="0 0 87 124" fill="none" xmlns="http://www.w3.org/2000/svg">
<path d="M43.5 58.9C39.3797 58.9 35.4281 57.267 32.5146 54.3602C29.6011 51.4533 27.9643 47.5109 27.9643 43.4C27.9643 39.2891 29.6011 35.3467 32.5146 32.4398C35.4281 29.533 39.3797 27.9 43.5 27.9C47.6203 27.9 51.5719 29.533 54.4854 32.4398C57.3989 35.3467 59.0357 39.2891 59.0357 43.4C59.0357 45.4355 58.6339 47.451 57.8531 49.3316C57.0724 51.2121 55.928 52.9208 54.4854 54.3602C53.0428 55.7995 51.3301 56.9412 49.4453 57.7201C47.5604 58.4991 45.5402 58.9 43.5 58.9ZM43.5 0C31.9631 0 20.8987 4.57249 12.7409 12.7116C4.58302 20.8506 0 31.8896 0 43.4C0 75.95 43.5 124 43.5 124C43.5 124 87 75.95 87 43.4C87 31.8896 82.417 20.8506 74.2591 12.7116C66.1013 4.57249 55.0369 0 43.5 0Z" fill="white"/>
</svg>
