<svg width="174" height="173" viewBox="0 0 174 173" fill="none" xmlns="http://www.w3.org/2000/svg">
<g clip-path="url(#clip0_2134_13)">
<path d="M77.1904 50.3806L54.1667 14.043L58.4493 11.3578C63.9927 7.84646 71.9035 9.62188 75.4148 15.1653L85.2539 30.6986C87.0157 33.4801 87.5868 36.7757 86.8687 39.9753C86.1506 43.1748 84.2261 45.9103 81.4623 47.6678L77.1904 50.3806ZM120.494 109.3C126.038 105.788 133.948 107.564 137.46 113.107L147.299 128.641C149.053 131.42 149.624 134.716 148.906 137.915C148.188 141.115 146.263 143.85 143.472 145.619L139.201 148.29L116.228 112.022L120.494 109.3ZM40.918 22.4624L44.385 20.2663L67.3883 56.5825L61.024 60.6069C60.5682 60.8948 60.1736 61.2698 59.863 61.7105C59.5523 62.1511 59.3316 62.6487 59.2136 63.1748C59.0955 63.7008 59.0824 64.245 59.1749 64.7762C59.2675 65.3073 59.464 65.815 59.7531 66.2701L94.4069 120.979C95.0069 121.876 95.9284 122.508 96.9809 122.744C98.0335 122.98 99.1365 122.803 100.062 122.249L106.428 118.216L129.38 154.538L125.913 156.734C123.366 158.347 113.963 163.336 99.4846 160.086C86.5585 157.185 66.7197 146.751 45.6626 113.518C3.64854 47.1673 39.3411 23.4612 40.918 22.4624Z" fill="white"/>
</g>
<defs>
<clipPath id="clip0_2134_13">
<rect width="144" height="144" fill="white" transform="matrix(-0.975729 -0.21898 -0.21898 0.975729 173.02 31.5137)"/>
</clipPath>
</defs>
</svg>
