<svg width="106" height="100" viewBox="0 0 106 100" fill="none" xmlns="http://www.w3.org/2000/svg">
<circle cx="50" cy="50" r="50" fill="#FF1616"/>
<path d="M39.125 46.9062H59.875ZM39.125 57.2812H59.875ZM80.625 70.25V36.5312C80.625 33.6652 78.3114 31.3438 75.4453 31.3438H52.0938C46.9062 31.3438 46.9062 23.5625 39.125 23.5625H23.5625C22.1867 23.5625 20.8672 24.109 19.8944 25.0819C18.9215 26.0547 18.375 27.3742 18.375 28.75V70.25C18.375 71.6258 18.9215 72.9453 19.8944 73.9181C20.8672 74.891 22.1867 75.4375 23.5625 75.4375H75.4375C76.8133 75.4375 78.1328 74.891 79.1056 73.9181C80.0785 72.9453 80.625 71.6258 80.625 70.25Z" fill="white"/>
<path d="M39.125 46.9062H59.875M39.125 57.2812H59.875M80.625 70.25V36.5312C80.625 33.6652 78.3114 31.3438 75.4453 31.3438H52.0938C46.9062 31.3438 46.9062 23.5625 39.125 23.5625H23.5625C22.1867 23.5625 20.8672 24.109 19.8944 25.0819C18.9215 26.0547 18.375 27.3742 18.375 28.75V70.25C18.375 71.6258 18.9215 72.9453 19.8944 73.9181C20.8672 74.891 22.1867 75.4375 23.5625 75.4375H75.4375C76.8133 75.4375 78.1328 74.891 79.1056 73.9181C80.0785 72.9453 80.625 71.6258 80.625 70.25Z" stroke="black" stroke-width="2" stroke-linecap="round"/>
<rect x="41.8594" y="41.8604" width="39.5349" height="39.5349" rx="1" fill="white"/>
<path d="M77.2198 83.277H46.0328C44.4266 83.277 42.8861 82.6389 41.7504 81.5031C40.6146 80.3674 39.9766 78.827 39.9766 77.2208V46.0337C39.9766 44.4275 40.6146 42.8871 41.7504 41.7514C42.8861 40.6156 44.4266 39.9775 46.0328 39.9775H77.2198C78.826 39.9775 80.3664 40.6156 81.5022 41.7514C82.6379 42.8871 83.276 44.4275 83.276 46.0337V77.2208C83.276 78.827 82.6379 80.3674 81.5022 81.5031C80.3664 82.6389 78.826 83.277 77.2198 83.277ZM46.0328 42.4C45.069 42.4 44.1448 42.7829 43.4633 43.4643C42.7819 44.1458 42.399 45.07 42.399 46.0337V77.2208C42.399 78.1845 42.7819 79.1087 43.4633 79.7902C44.1448 80.4716 45.069 80.8545 46.0328 80.8545H77.2198C78.1835 80.8545 79.1078 80.4716 79.7892 79.7902C80.4707 79.1087 80.8535 78.1845 80.8535 77.2208V46.0337C80.8535 45.07 80.4707 44.1458 79.7892 43.4643C79.1078 42.7829 78.1835 42.4 77.2198 42.4H46.0328Z" fill="black"/>
<path d="M48.4102 52.6226C48.0902 52.6171 47.7844 52.4897 47.5551 52.2665C47.328 52.0394 47.2004 51.7314 47.2004 51.4102C47.2004 51.089 47.328 50.781 47.5551 50.5538C47.7838 50.33 48.0902 50.2033 48.4102 50.2002H50.8472C51.167 50.2043 51.4731 50.3309 51.7024 50.5538C51.8152 50.6663 51.9047 50.8 51.9658 50.9471C52.027 51.0943 52.0584 51.2521 52.0585 51.4114C52.0585 51.7326 51.9308 52.0407 51.7037 52.2679C51.4765 52.495 51.1685 52.6226 50.8472 52.6226H48.4102ZM48.4102 62.8382C48.0908 62.8324 47.7853 62.7061 47.5551 62.4846C47.4423 62.372 47.3528 62.2384 47.2917 62.0912C47.2307 61.9441 47.1992 61.7863 47.1992 61.627C47.1992 61.4677 47.2307 61.3099 47.2917 61.1628C47.3528 61.0156 47.4423 60.882 47.5551 60.7694C47.7844 60.5465 48.0904 60.4199 48.4102 60.4158H50.8472C51.1668 60.4211 51.4724 60.5475 51.7024 60.7694C51.8152 60.882 51.9046 61.0156 51.9657 61.1628C52.0268 61.3099 52.0582 61.4677 52.0582 61.627C52.0582 61.7863 52.0268 61.9441 51.9657 62.0912C51.9046 62.2384 51.8152 62.372 51.7024 62.4846C51.4731 62.7075 51.167 62.8341 50.8472 62.8382H48.4102ZM48.4102 73.0611C48.0902 73.0556 47.7844 72.9282 47.5551 72.705C47.328 72.4779 47.2004 72.1698 47.2004 71.8487C47.2004 71.5275 47.328 71.2194 47.5551 70.9923C47.7844 70.7694 48.0904 70.6428 48.4102 70.6386H50.8472C51.167 70.6428 51.4731 70.7694 51.7024 70.9923C51.8152 71.1048 51.9047 71.2385 51.9658 71.3856C52.027 71.5328 52.0584 71.6905 52.0585 71.8499C52.0585 72.1711 51.9308 72.4792 51.7037 72.7063C51.4765 72.9335 51.1685 73.0611 50.8472 73.0611H48.4102ZM58.1243 52.6178C57.8031 52.6178 57.495 52.4902 57.2679 52.263C57.0407 52.0359 56.9131 51.7278 56.9131 51.4066C56.9131 51.0853 57.0407 50.7772 57.2679 50.5501C57.495 50.3229 57.8031 50.1953 58.1243 50.1953H74.8395C75.1607 50.1953 75.4688 50.3229 75.6959 50.5501C75.9231 50.7772 76.0507 51.0853 76.0507 51.4066C76.0507 51.7278 75.9231 52.0359 75.6959 52.263C75.4688 52.4902 75.1607 52.6178 74.8395 52.6178H58.1243ZM58.1243 62.8382C57.8031 62.8382 57.495 62.7106 57.2679 62.4835C57.0407 62.2563 56.9131 61.9482 56.9131 61.627C56.9131 61.3058 57.0407 60.9977 57.2679 60.7705C57.495 60.5434 57.8031 60.4158 58.1243 60.4158H74.8395C75.1607 60.4158 75.4688 60.5434 75.6959 60.7705C75.9231 60.9977 76.0507 61.3058 76.0507 61.627C76.0507 61.9482 75.9231 62.2563 75.6959 62.4835C75.4688 62.7106 75.1607 62.8382 74.8395 62.8382H58.1243ZM58.1243 73.0563C57.8031 73.0563 57.495 72.9287 57.2679 72.7015C57.0407 72.4743 56.9131 72.1663 56.9131 71.845C56.9131 71.5238 57.0407 71.2157 57.2679 70.9885C57.495 70.7614 57.8031 70.6338 58.1243 70.6338H74.8395C75.1607 70.6338 75.4688 70.7614 75.6959 70.9885C75.9231 71.2157 76.0507 71.5238 76.0507 71.845C76.0507 72.1663 75.9231 72.4743 75.6959 72.7015C75.4688 72.9287 75.1607 73.0563 74.8395 73.0563H58.1243Z" fill="black"/>
<path d="M50.082 47.6935L53.307 39.3085L72.657 20.6035L80.397 27.6985L78.462 29.6335L69.432 38.6635L60.402 47.0485L52.017 49.6285L50.082 47.6935Z" fill="white" stroke="black"/>
<path d="M83.7911 17.5728L82.6767 16.4578C81.6625 15.4443 80.2874 14.875 78.8537 14.875C77.4199 14.875 76.0448 15.4443 75.0306 16.4578L52.5121 38.9783L48.049 50.6486C47.5252 52.0299 48.2246 52.7255 49.6015 52.1992L61.2732 47.7404L83.7911 25.2192C85.9042 23.1092 85.9017 19.686 83.7911 17.5728ZM69.6481 23.5017L71.2156 25.0686L55.7383 40.5477L54.1708 38.9796L69.6481 23.5017ZM72.0444 25.898L74.3537 28.2081L58.877 43.6865L56.5676 41.3771L72.0444 25.898ZM53.5164 49.4504L50.8027 46.7341L53.4283 39.8958L60.3526 46.8191L53.5164 49.4504ZM61.2732 46.0835L59.707 44.5153L75.1831 29.0368L76.7506 30.605L61.2732 46.0835ZM77.6537 29.7018L70.5506 22.5998L72.3175 20.8323L79.4205 27.9343L77.6537 29.7018Z" fill="black"/>
</svg>
