<svg width="114" height="114" viewBox="0 0 114 114" fill="none" xmlns="http://www.w3.org/2000/svg">
<g clip-path="url(#clip0_2142_59)">
<mask id="mask0_2142_59" style="mask-type:luminance" maskUnits="userSpaceOnUse" x="0" y="0" width="114" height="114">
<path d="M0 0H114V114H0V0Z" fill="white"/>
</mask>
<g mask="url(#mask0_2142_59)">
<path fill-rule="evenodd" clip-rule="evenodd" d="M114 57C114 88.4782 88.4782 114 57 114C25.5218 114 0 88.4782 0 57C0 25.5218 25.5218 0 57 0C88.4782 0 114 25.5218 114 57ZM59.0425 42.0803C53.4993 44.384 42.4175 49.1578 25.802 56.3968C23.104 57.4703 21.6885 58.52 21.5603 59.546C21.3418 61.2845 23.5172 61.9685 26.4717 62.8948C26.8755 63.023 27.2935 63.1512 27.721 63.2937C30.6327 64.239 34.5468 65.3457 36.5798 65.3885C38.4275 65.4265 40.489 64.6665 42.7643 63.1085C58.2873 52.6253 66.3005 47.329 66.804 47.215C67.1603 47.1342 67.6542 47.0297 67.9867 47.329C68.3192 47.6235 68.286 48.184 68.2528 48.336C68.0343 49.2527 59.5127 57.1805 55.0952 61.2845C53.7177 62.5623 52.744 63.4695 52.5445 63.6785C52.098 64.1393 51.642 64.581 51.205 65.0038C48.4975 67.6068 46.474 69.5638 51.319 72.7558C53.6465 74.29 55.5085 75.5583 57.3657 76.8218C59.394 78.204 61.4175 79.5815 64.0395 81.301C64.7045 81.738 65.341 82.1892 65.9633 82.631C68.324 84.3172 70.4473 85.8277 73.0693 85.5902C74.5893 85.4477 76.1662 84.018 76.9642 79.7477C78.85 69.6492 82.5645 47.7803 83.4242 38.7648C83.4766 38.0162 83.4447 37.2642 83.3292 36.5228C83.2601 35.9239 82.9685 35.3729 82.5123 34.979C81.833 34.4232 80.7785 34.3045 80.3035 34.314C78.1613 34.352 74.8743 35.4968 59.0425 42.0803Z" fill="white"/>
</g>
</g>
<defs>
<clipPath id="clip0_2142_59">
<rect width="114" height="114" fill="white"/>
</clipPath>
</defs>
</svg>
